<svg width="94" height="70" viewBox="0 0 94 70" fill="none" xmlns="http://www.w3.org/2000/svg">
<path d="M74.6705 0L0.557294 12.6044L0.5 19.0394L19.6617 35.454L64.6143 27.132L64.7008 43.3894L82.8726 59.0202L93.7773 56.965L94.0001 16.9064L74.6705 0V0ZM20.1209 18.3492L67.0039 10.5772L79.1705 20.0064L78.746 39.8412L76.5256 38.9538L76.142 20.0505L70.3383 15.3094L25.2714 22.8505L20.1209 18.3492V18.3492Z" fill="#1B1918"/>
<path d="M7.60215 45.0538L0.0949565 46.3782L0 53.4006L18.8775 69.9996L61.6566 62.4593L61.6756 56.1124L57.9352 52.4714L22.4761 58.7447L7.60215 45.0538V45.0538ZM8.16987 28.6328L0.550072 29.5893L0.567393 36.0591L18.4875 52.2491L61.8177 44.7381L61.9093 38.2017L57.551 35.5236L22.5348 42.0224L8.16987 28.6328V28.6328Z" fill="#E84212"/>
</svg>
