<svg width="32" height="52" viewBox="0 0 32 52" fill="none" xmlns="http://www.w3.org/2000/svg">
<path d="M1 6.875C1 5.45073 1.56797 4.084 2.58024 3.07568C3.59264 2.06724 4.96657 1.5 6.4 1.5H25.6C27.0334 1.5 28.4074 2.06724 29.4198 3.07568C30.432 4.084 31 5.45073 31 6.875V45.125C31 46.5493 30.432 47.916 29.4198 48.9243C28.4074 49.9328 27.0334 50.5 25.6 50.5H6.4C4.96657 50.5 3.59264 49.9328 2.58024 48.9243C1.56797 47.916 1 46.5493 1 45.125V6.875ZM20.2 41.9375C20.2 40.8256 19.7565 39.7601 18.9685 38.9751C18.1805 38.1902 17.1126 37.75 16 37.75C14.8874 37.75 13.8195 38.1902 13.0315 38.9751C12.2435 39.7601 11.8 40.8256 11.8 41.9375C11.8 43.0494 12.2435 44.1149 13.0315 44.8999C13.8195 45.6848 14.8874 46.125 16 46.125C17.1126 46.125 18.1805 45.6848 18.9685 44.8999C19.7565 44.1149 20.2 43.0494 20.2 41.9375Z" stroke="black" stroke-width="2"/>
</svg>
